<?xml version="1.0" encoding="iso-8859-1"?>
<!-- Uploaded to: SVG Repo, www.svgrepo.com, Generator: SVG Repo Mixer Tools -->
<!DOCTYPE svg PUBLIC "-//W3C//DTD SVG 1.1//EN" "http://www.w3.org/Graphics/SVG/1.1/DTD/svg11.dtd">
<svg fill="#000000" version="1.1" id="Capa_1" xmlns="http://www.w3.org/2000/svg" xmlns:xlink="http://www.w3.org/1999/xlink" 
	 width="800px" height="800px" viewBox="0 0 28.685 28.686"
	 xml:space="preserve">
<g>
	<g>
		<g>
			<path d="M3.136,11.14c0,0,0.886-1.142,0.313-2.728C2.874,6.827,1.535,6.225,1.535,6.225S0.533,7.586,1.093,9.131
				C1.652,10.677,3.136,11.14,3.136,11.14z"/>
			<path d="M5.595,11.951c0,0,1.549-0.124,2.436-1.509C8.918,9.058,8.24,7.51,8.24,7.51S6.802,7.802,5.891,9.223
				C4.981,10.643,5.595,11.951,5.595,11.951z"/>
			<path d="M5.752,13.781c-0.717,1.527,0.062,2.745,0.062,2.745s1.521-0.326,2.219-1.813c0.697-1.489-0.177-2.935-0.177-2.935
				S6.469,12.254,5.752,13.781z"/>
			<path d="M9.253,15.011c0,0-1.337,0.606-1.907,2.192c-0.57,1.589,0.319,2.727,0.319,2.727s1.482-0.467,2.038-2.014
				C10.258,16.369,9.253,15.011,9.253,15.011z"/>
			<path d="M10.367,23.363c0,0,1.286-0.875,1.373-2.516c0.086-1.642-1.269-2.652-1.269-2.652s-1.106,0.965-1.195,2.649
				C9.188,22.527,10.367,23.363,10.367,23.363z"/>
			<path d="M5.111,8.084c0,0,1.371-0.458,1.773-2.095c0.403-1.637-0.376-2.881-0.376-2.881S4.92,3.684,4.527,5.281
				C4.135,6.877,5.111,8.084,5.111,8.084z"/>
			<path d="M3.135,14.621c0,0,0.509-1.353-0.506-2.698c-1.017-1.346-2.473-1.527-2.473-1.527S-0.4,11.992,0.59,13.304
				C1.58,14.617,3.135,14.621,3.135,14.621z"/>
			<path d="M4.271,18.191c0,0,0.195-1.432-1.093-2.518c-1.29-1.087-2.75-0.939-2.75-0.939s-0.188,1.68,1.068,2.739
				C2.754,18.531,4.271,18.191,4.271,18.191z"/>
			<path d="M6.001,21.143c0,0-0.245-1.424-1.803-2.068c-1.559-0.646-2.905-0.063-2.905-0.063s0.33,1.658,1.848,2.288
				C4.659,21.927,6.001,21.143,6.001,21.143z"/>
			<path d="M6.757,22.369c-1.624-0.454-2.892,0.285-2.892,0.285s0.525,1.606,2.107,2.049c1.584,0.443,2.822-0.496,2.822-0.496
				S8.381,22.822,6.757,22.369z"/>
			<path d="M5.28,9.06L4.558,8.705c-0.038,0.079-3.752,7.968,6.684,16.889l0.522-0.611C1.828,16.488,5.134,9.359,5.28,9.06z"/>
		</g>
		<g>
			<path d="M25.549,11.125c0,0-0.887-1.142-0.313-2.727c0.573-1.586,1.913-2.188,1.913-2.188s1.001,1.36,0.441,2.906
				C27.033,10.662,25.549,11.125,25.549,11.125z"/>
			<path d="M23.09,11.936c0,0-1.549-0.125-2.437-1.509c-0.887-1.384-0.209-2.932-0.209-2.932s1.438,0.292,2.35,1.712
				C23.704,10.628,23.09,11.936,23.09,11.936z"/>
			<path d="M22.933,13.765c0.717,1.527-0.062,2.745-0.062,2.745s-1.521-0.326-2.22-1.813c-0.696-1.489,0.177-2.935,0.177-2.935
				S22.216,12.239,22.933,13.765z"/>
			<path d="M19.432,14.996c0,0,1.336,0.605,1.907,2.194c0.57,1.588-0.32,2.726-0.32,2.726s-1.481-0.468-2.037-2.015
				S19.432,14.996,19.432,14.996z"/>
			<path d="M18.316,23.347c0,0-1.285-0.874-1.372-2.516c-0.086-1.642,1.27-2.653,1.27-2.653s1.104,0.965,1.194,2.65
				C19.497,22.513,18.316,23.347,18.316,23.347z"/>
			<path d="M23.572,8.069c0,0-1.369-0.458-1.771-2.095c-0.403-1.637,0.377-2.882,0.377-2.882s1.588,0.576,1.98,2.174
				C24.55,6.861,23.572,8.069,23.572,8.069z"/>
			<path d="M25.55,14.606c0,0-0.509-1.353,0.505-2.698c1.017-1.346,2.474-1.527,2.474-1.527s0.557,1.596-0.434,2.908
				C27.104,14.602,25.55,14.606,25.55,14.606z"/>
			<path d="M24.414,18.176c0,0-0.196-1.432,1.093-2.52c1.29-1.086,2.75-0.938,2.75-0.938s0.188,1.681-1.069,2.739
				S24.414,18.176,24.414,18.176z"/>
			<path d="M22.683,21.128c0,0,0.246-1.425,1.804-2.07c1.56-0.646,2.905-0.063,2.905-0.063s-0.33,1.658-1.848,2.287
				C24.025,21.912,22.683,21.128,22.683,21.128z"/>
			<path d="M21.927,22.354c1.624-0.453,2.893,0.285,2.893,0.285s-0.524,1.605-2.107,2.051c-1.583,0.441-2.821-0.498-2.821-0.498
				S20.304,22.808,21.927,22.354z"/>
			<path d="M23.404,9.045l0.724-0.355c0.038,0.079,3.752,7.968-6.685,16.888l-0.521-0.611C26.856,16.474,23.55,9.343,23.404,9.045z"
				/>
		</g>
	</g>
</g>
</svg>
